<svg width="43" height="42" viewBox="0 0 43 42" fill="none" xmlns="http://www.w3.org/2000/svg">
<rect width="42.0045" height="42" fill="#5DCBE6"/>
<path d="M21.0045 15.8723C18.1661 15.8723 15.8767 18.1617 15.8767 21C15.8767 23.8383 18.1661 26.1277 21.0045 26.1277C23.8428 26.1277 26.1322 23.8383 26.1322 21C26.1322 18.1617 23.8428 15.8723 21.0045 15.8723ZM21.0045 24.3337C19.1703 24.3337 17.6708 22.8387 17.6708 21C17.6708 19.1613 19.1658 17.6663 21.0045 17.6663C22.8431 17.6663 24.3382 19.1613 24.3382 21C24.3382 22.8387 22.8387 24.3337 21.0045 24.3337ZM27.538 15.6625C27.538 16.3275 27.0025 16.8585 26.342 16.8585C25.677 16.8585 25.1459 16.323 25.1459 15.6625C25.1459 15.002 25.6815 14.4665 26.342 14.4665C27.0025 14.4665 27.538 15.002 27.538 15.6625ZM30.9342 16.8764C30.8583 15.2742 30.4924 13.8551 29.3186 12.6858C28.1494 11.5166 26.7302 11.1506 25.1281 11.0703C23.4769 10.9766 18.5276 10.9766 16.8764 11.0703C15.2787 11.1462 13.8595 11.5121 12.6858 12.6814C11.5121 13.8506 11.1506 15.2698 11.0703 16.8719C10.9766 18.5232 10.9766 23.4724 11.0703 25.1236C11.1462 26.7258 11.5121 28.1449 12.6858 29.3142C13.8595 30.4834 15.2742 30.8494 16.8764 30.9297C18.5276 31.0234 23.4769 31.0234 25.1281 30.9297C26.7302 30.8538 28.1494 30.4879 29.3186 29.3142C30.4879 28.1449 30.8538 26.7258 30.9342 25.1236C31.0279 23.4724 31.0279 18.5276 30.9342 16.8764ZM28.801 26.8953C28.4529 27.7701 27.779 28.4439 26.8998 28.7965C25.5833 29.3186 22.4593 29.1981 21.0045 29.1981C19.5496 29.1981 16.4212 29.3142 15.1091 28.7965C14.2344 28.4484 13.5605 27.7745 13.208 26.8953C12.6858 25.5788 12.8063 22.4549 12.8063 21C12.8063 19.5451 12.6903 16.4167 13.208 15.1047C13.5561 14.2299 14.2299 13.5561 15.1091 13.2035C16.4256 12.6814 19.5496 12.8019 21.0045 12.8019C22.4593 12.8019 25.5878 12.6858 26.8998 13.2035C27.7745 13.5516 28.4484 14.2255 28.801 15.1047C29.3231 16.4212 29.2026 19.5451 29.2026 21C29.2026 22.4549 29.3231 25.5833 28.801 26.8953Z" fill="white"/>
</svg>
