<svg width="138" height="26" viewBox="0 0 138 26" fill="none" xmlns="http://www.w3.org/2000/svg">
<path d="M131 20L137 13L131 6" stroke="#9C69E2" stroke-width="2" stroke-linecap="round" stroke-linejoin="round"/>
<path d="M137 13H117" stroke="#9C69E2" stroke-width="2" stroke-linecap="round" stroke-linejoin="round"/>
<path d="M1.328 19V7.8H3.92V16.888H9.536V19H1.328ZM15.1134 19.128C14.132 19.128 13.268 18.936 12.5214 18.552C11.7854 18.168 11.2147 17.6453 10.8094 16.984C10.404 16.312 10.2014 15.5493 10.2014 14.696C10.2014 13.832 10.3987 13.0693 10.7934 12.408C11.1987 11.736 11.748 11.2133 12.4414 10.84C13.1347 10.456 13.9187 10.264 14.7934 10.264C15.636 10.264 16.3934 10.4453 17.0654 10.808C17.748 11.16 18.2867 11.672 18.6814 12.344C19.076 13.0053 19.2734 13.8 19.2734 14.728C19.2734 14.824 19.268 14.936 19.2574 15.064C19.2467 15.1813 19.236 15.2933 19.2254 15.4H12.2334V13.944H17.9134L16.9534 14.376C16.9534 13.928 16.8627 13.5387 16.6814 13.208C16.5 12.8773 16.2494 12.6213 15.9294 12.44C15.6094 12.248 15.236 12.152 14.8094 12.152C14.3827 12.152 14.004 12.248 13.6734 12.44C13.3534 12.6213 13.1027 12.8827 12.9214 13.224C12.74 13.5547 12.6494 13.9493 12.6494 14.408V14.792C12.6494 15.2613 12.7507 15.6773 12.9534 16.04C13.1667 16.392 13.46 16.664 13.8334 16.856C14.2174 17.0373 14.6654 17.128 15.1774 17.128C15.636 17.128 16.036 17.0587 16.3774 16.92C16.7294 16.7813 17.0494 16.5733 17.3374 16.296L18.6654 17.736C18.2707 18.184 17.7747 18.5307 17.1774 18.776C16.58 19.0107 15.892 19.128 15.1134 19.128ZM26.0608 19V17.32L25.9008 16.952V13.944C25.9008 13.4107 25.7354 12.9947 25.4048 12.696C25.0848 12.3973 24.5888 12.248 23.9167 12.248C23.4581 12.248 23.0048 12.3227 22.5568 12.472C22.1194 12.6107 21.7461 12.8027 21.4367 13.048L20.5407 11.304C21.0101 10.9733 21.5754 10.7173 22.2367 10.536C22.8981 10.3547 23.5701 10.264 24.2527 10.264C25.5648 10.264 26.5834 10.5733 27.3088 11.192C28.0341 11.8107 28.3968 12.776 28.3968 14.088V19H26.0608ZM23.4367 19.128C22.7648 19.128 22.1888 19.016 21.7088 18.792C21.2287 18.5573 20.8607 18.2427 20.6047 17.848C20.3487 17.4533 20.2207 17.0107 20.2207 16.52C20.2207 16.008 20.3434 15.56 20.5887 15.176C20.8447 14.792 21.2447 14.4933 21.7887 14.28C22.3327 14.056 23.0421 13.944 23.9167 13.944H26.2048V15.4H24.1888C23.6021 15.4 23.1967 15.496 22.9727 15.688C22.7594 15.88 22.6528 16.12 22.6528 16.408C22.6528 16.728 22.7754 16.984 23.0208 17.176C23.2768 17.3573 23.6234 17.448 24.0608 17.448C24.4768 17.448 24.8501 17.352 25.1807 17.16C25.5114 16.9573 25.7514 16.664 25.9008 16.28L26.2847 17.432C26.1034 17.9867 25.7728 18.408 25.2927 18.696C24.8128 18.984 24.1941 19.128 23.4367 19.128ZM30.7357 19V10.392H33.1198V12.824L32.7837 12.12C33.0397 11.512 33.4504 11.0533 34.0157 10.744C34.5811 10.424 35.2691 10.264 36.0798 10.264V12.568C35.9731 12.5573 35.8771 12.552 35.7917 12.552C35.7064 12.5413 35.6158 12.536 35.5198 12.536C34.8371 12.536 34.2824 12.7333 33.8558 13.128C33.4398 13.512 33.2318 14.1147 33.2318 14.936V19H30.7357ZM42.8915 10.264C43.5742 10.264 44.1822 10.4027 44.7155 10.68C45.2595 10.9467 45.6862 11.3627 45.9955 11.928C46.3048 12.4827 46.4595 13.1973 46.4595 14.072V19H43.9635V14.456C43.9635 13.7627 43.8088 13.2507 43.4995 12.92C43.2008 12.5893 42.7742 12.424 42.2195 12.424C41.8248 12.424 41.4675 12.5093 41.1475 12.68C40.8382 12.84 40.5928 13.0907 40.4115 13.432C40.2408 13.7733 40.1555 14.2107 40.1555 14.744V19H37.6595V10.392H40.0435V12.776L39.5955 12.056C39.9048 11.48 40.3475 11.0373 40.9235 10.728C41.4995 10.4187 42.1555 10.264 42.8915 10.264ZM64.4373 10.264C65.1199 10.264 65.7226 10.4027 66.2452 10.68C66.7786 10.9467 67.1946 11.3627 67.4932 11.928C67.8026 12.4827 67.9573 13.1973 67.9573 14.072V19H65.4613V14.456C65.4613 13.7627 65.3173 13.2507 65.0293 12.92C64.7413 12.5893 64.3359 12.424 63.8133 12.424C63.4506 12.424 63.1252 12.5093 62.8372 12.68C62.5492 12.84 62.3252 13.0853 62.1652 13.416C62.0052 13.7467 61.9253 14.168 61.9253 14.68V19H59.4292V14.456C59.4292 13.7627 59.2852 13.2507 58.9973 12.92C58.7199 12.5893 58.3199 12.424 57.7972 12.424C57.4346 12.424 57.1092 12.5093 56.8212 12.68C56.5332 12.84 56.3092 13.0853 56.1492 13.416C55.9892 13.7467 55.9092 14.168 55.9092 14.68V19H53.4132V10.392H55.7972V12.744L55.3492 12.056C55.6479 11.4693 56.0692 11.0267 56.6132 10.728C57.1679 10.4187 57.7972 10.264 58.5012 10.264C59.2906 10.264 59.9786 10.4667 60.5653 10.872C61.1626 11.2667 61.5573 11.8747 61.7493 12.696L60.8693 12.456C61.1572 11.784 61.6159 11.2507 62.2452 10.856C62.8852 10.4613 63.6159 10.264 64.4373 10.264ZM74.433 19.128C73.5157 19.128 72.6997 18.936 71.985 18.552C71.281 18.168 70.721 17.6453 70.305 16.984C69.8997 16.312 69.697 15.5493 69.697 14.696C69.697 13.832 69.8997 13.0693 70.305 12.408C70.721 11.736 71.281 11.2133 71.985 10.84C72.6997 10.456 73.5157 10.264 74.433 10.264C75.3397 10.264 76.1503 10.456 76.865 10.84C77.5797 11.2133 78.1397 11.7307 78.545 12.392C78.9503 13.0533 79.153 13.8213 79.153 14.696C79.153 15.5493 78.9503 16.312 78.545 16.984C78.1397 17.6453 77.5797 18.168 76.865 18.552C76.1503 18.936 75.3397 19.128 74.433 19.128ZM74.433 17.08C74.849 17.08 75.2223 16.984 75.553 16.792C75.8837 16.6 76.145 16.328 76.337 15.976C76.529 15.6133 76.625 15.1867 76.625 14.696C76.625 14.1947 76.529 13.768 76.337 13.416C76.145 13.064 75.8837 12.792 75.553 12.6C75.2223 12.408 74.849 12.312 74.433 12.312C74.017 12.312 73.6437 12.408 73.313 12.6C72.9823 12.792 72.7157 13.064 72.513 13.416C72.321 13.768 72.225 14.1947 72.225 14.696C72.225 15.1867 72.321 15.6133 72.513 15.976C72.7157 16.328 72.9823 16.6 73.313 16.792C73.6437 16.984 74.017 17.08 74.433 17.08ZM80.9014 19V10.392H83.2854V12.824L82.9494 12.12C83.2054 11.512 83.616 11.0533 84.1814 10.744C84.7467 10.424 85.4347 10.264 86.2454 10.264V12.568C86.1387 12.5573 86.0427 12.552 85.9574 12.552C85.872 12.5413 85.7814 12.536 85.6854 12.536C85.0027 12.536 84.448 12.7333 84.0214 13.128C83.6054 13.512 83.3974 14.1147 83.3974 14.936V19H80.9014ZM92.019 19.128C91.0377 19.128 90.1737 18.936 89.427 18.552C88.691 18.168 88.1203 17.6453 87.715 16.984C87.3097 16.312 87.107 15.5493 87.107 14.696C87.107 13.832 87.3043 13.0693 87.699 12.408C88.1043 11.736 88.6537 11.2133 89.347 10.84C90.0403 10.456 90.8243 10.264 91.699 10.264C92.5417 10.264 93.299 10.4453 93.971 10.808C94.6537 11.16 95.1923 11.672 95.587 12.344C95.9817 13.0053 96.179 13.8 96.179 14.728C96.179 14.824 96.1737 14.936 96.163 15.064C96.1523 15.1813 96.1417 15.2933 96.131 15.4H89.139V13.944H94.819L93.859 14.376C93.859 13.928 93.7683 13.5387 93.587 13.208C93.4057 12.8773 93.155 12.6213 92.835 12.44C92.515 12.248 92.1417 12.152 91.715 12.152C91.2883 12.152 90.9097 12.248 90.579 12.44C90.259 12.6213 90.0083 12.8827 89.827 13.224C89.6457 13.5547 89.555 13.9493 89.555 14.408V14.792C89.555 15.2613 89.6563 15.6773 89.859 16.04C90.0723 16.392 90.3657 16.664 90.739 16.856C91.123 17.0373 91.571 17.128 92.083 17.128C92.5417 17.128 92.9417 17.0587 93.283 16.92C93.635 16.7813 93.955 16.5733 94.243 16.296L95.571 17.736C95.1763 18.184 94.6803 18.5307 94.083 18.776C93.4857 19.0107 92.7977 19.128 92.019 19.128Z" fill="#212353"/>
</svg>
